<svg width="90" height="100" viewBox="0 0 23.812 26.458" xmlns="http://www.w3.org/2000/svg"><g transform="translate(-40.224)"><path style="fill:#4338ca;fill-opacity:1;stroke:none;stroke-width:0;stroke-linecap:round;stroke-linejoin:round;stroke-dasharray:none;stroke-opacity:1;stop-color:#000" d="M73.716 17.222H67.836a3.464 3.464 30 0 1-3-1.732l-.47-.814-2.47-4.279a3.464 3.464 90 0 1 0-3.464l.47-.814 2.47-4.279a3.464 3.464 150 0 1 3-1.732H73.716a3.464 3.464 30 0 1 3 1.732l.47.815 2.47 4.278a3.464 3.464 90 0 1 0 3.464l-.47.814-2.47 4.279a3.464 3.464 150 0 1-3 1.732z" transform="matrix(-1.20502 .70785 -.69572 -1.22603 143.445 -26.246)"/><rect style="fill:#fff;fill-opacity:1;stroke:none;stroke-width:0;stroke-linecap:round;stroke-linejoin:round;stroke-dasharray:none;stroke-opacity:1;stop-color:#000" width="2.646" height="10.583" x="-55.101" y="-4.578" ry="1.323" transform="rotate(-165)"/><rect style="fill:#fff;fill-opacity:1;stroke:none;stroke-width:0;stroke-linecap:round;stroke-linejoin:round;stroke-dasharray:none;stroke-opacity:1;stop-color:#000" width="2.646" height="6.615" x="-51.012" y="-3.689" ry="1.323" transform="rotate(-165)"/><rect style="fill:#fff;fill-opacity:1;stroke:none;stroke-width:0;stroke-linecap:round;stroke-linejoin:round;stroke-dasharray:none;stroke-opacity:1;stop-color:#000" width="2.646" height="6.615" x="-59.19" y="-1.498" ry="1.323" transform="rotate(-165)"/></g></svg>